<svg width="512" height="320" viewBox="0 0 512 320" fill="none" xmlns="http://www.w3.org/2000/svg">
  <rect width="512" height="320" rx="28" fill="#EAF8FC"/>
  <rect x="22" y="22" width="468" height="276" rx="20" fill="#F8FDFE" stroke="#11B5D2" stroke-width="4"/>

  <rect x="72" y="84" width="368" height="178" rx="16" fill="#E4F2F7"/>
  <rect x="98" y="112" width="230" height="122" rx="14" fill="#D1E7F0"/>
  <rect x="346" y="112" width="72" height="122" rx="14" fill="#D1E7F0"/>

  <rect x="120" y="130" width="114" height="70" rx="12" fill="#FFFFFF" stroke="#9FCBD8" stroke-width="3"/>
  <rect x="136" y="146" width="26" height="16" rx="4" fill="#11B5D2"/>
  <rect x="166" y="146" width="26" height="16" rx="4" fill="#3FBA8A"/>
  <rect x="196" y="146" width="22" height="16" rx="4" fill="#F2A33C"/>
  <path d="M136 178L146 188L164 170" stroke="#3FBA8A" stroke-width="5" stroke-linecap="round" stroke-linejoin="round"/>
  <path d="M170 178L180 188L198 170" stroke="#3FBA8A" stroke-width="5" stroke-linecap="round" stroke-linejoin="round"/>

  <rect x="260" y="132" width="54" height="64" rx="10" fill="#FFFFFF" stroke="#9FCBD8" stroke-width="3"/>
  <path d="M274 154H300" stroke="#9FCBD8" stroke-width="5" stroke-linecap="round"/>
  <path d="M274 170H294" stroke="#C1DCE5" stroke-width="5" stroke-linecap="round"/>

  <rect x="362" y="150" width="40" height="58" rx="8" fill="#FFFFFF" stroke="#9FCBD8" stroke-width="3"/>
  <path d="M374 170H390" stroke="#11B5D2" stroke-width="4" stroke-linecap="round"/>
  <circle cx="382" cy="186" r="8" fill="#3FBA8A"/>

  <circle cx="410" cy="70" r="16" fill="#3FBA8A"/>
  <path d="M402 70L408 76L419 64" stroke="white" stroke-width="4" stroke-linecap="round" stroke-linejoin="round"/>
</svg>
